Coordinates
version=1
nRows=9
nColumns=42
inDegrees=yes

Units are S.I. units (second, meters, Newtons, ...)
If the header above contains a line with 'inDegrees', this indicates whether rotational values are in degrees (yes) or radians (no).

endheader
time	pelvis_tilt	pelvis_list	pelvis_rotation	pelvis_tx	pelvis_ty	pelvis_tz	hip_flexion_r	hip_adduction_r	hip_rotation_r	knee_angle_r	knee_adduction_r	knee_angle_r_beta	ankle_angle_r	subtalar_angle_r	mtp_angle_r	hip_flexion_l	hip_adduction_l	hip_rotation_l	knee_angle_l	knee_adduction_l	knee_angle_l_beta	ankle_angle_l	subtalar_angle_l	mtp_angle_l	lumbar_extension	lumbar_bending	lumbar_rotation	arm_flex_r	arm_add_r	arm_rot_r	elbow_flex_r	pro_sup_r	wrist_flex_r	wrist_dev_r	arm_flex_l	arm_add_l	arm_rot_l	elbow_flex_l	pro_sup_l	wrist_flex_l	wrist_dev_l
      0.50000000	      7.91375779	      5.80159100	     -4.56921950	     -1.61139003	      0.97636542	      0.34302396	    -22.18590038	     -7.12277992	    -17.17982755	     16.59486978	      1.60124908	      0.28963512	     14.39978961	      6.01513885	     -9.54119032	     10.20268947	      3.95448356	    -13.42823242	      5.89493002	     -1.03187697	      0.10288594	     -7.36452185	      9.71826823	     -9.54119032	    -18.37385883	    -10.85543909	      6.82096251	     24.07208440	    -16.34700432	     29.48170611	     39.37102263	     90.00000001	      0.00000000	      0.00000000	    -17.58123227	    -12.67630524	      6.32046046	     40.33339739	     90.00000001	      0.00000000	      0.00000000
      0.51000000	      7.74141829	      6.01462518	     -4.62106288	     -1.60237504	      0.97733955	      0.34123829	    -22.08204345	     -7.74702475	    -17.37872889	     17.46268280	      1.65934166	      0.30478131	     13.12591445	      6.01117543	     -9.51938710	      9.64505795	      4.36190350	    -13.74387318	      5.41130974	     -1.04124676	      0.09444517	     -7.65273518	      9.99217078	     -9.51938710	    -18.09995277	    -11.18071546	      6.65521658	     23.43484454	    -16.23671994	     29.43065855	     39.27940906	     90.00000001	      0.00000000	      0.00000000	    -17.24151289	    -12.79855090	      6.42246413	     40.07929087	     90.00000001	      0.00000000	      0.00000000
      0.52000000	      7.63036597	      6.43582596	     -4.52565872	     -1.59332686	      0.97849694	      0.33888457	    -21.97155599	     -8.65352746	    -17.87684802	     18.56687478	      1.80797516	      0.32405310	     12.14362802	      6.07779464	     -9.46676538	      9.02752812	      5.15107125	    -13.87417453	      4.85570331	     -1.23170568	      0.08474801	     -8.13766185	     10.38213344	     -9.46676538	    -17.94640508	    -11.66108186	      6.34680766	     22.69879659	    -16.17500972	     29.15218969	     39.30095841	     90.00000001	      0.00000000	      0.00000000	    -16.81489869	    -13.02003201	      6.69987795	     39.94101910	     90.00000001	      0.00000000	      0.00000000
      0.53000000	      7.49060159	      6.65313086	     -4.45783951	     -1.58424917	      0.97974458	      0.33684301	    -21.69586395	     -9.34728735	    -18.36972904	     19.88044179	      1.86695549	      0.34697917	     10.80616092	      6.15786278	     -9.41179935	      8.48779330	      5.62646286	    -13.84797091	      4.52353406	     -1.30681496	      0.07895056	     -8.22849365	     10.53027821	     -9.41179935	    -17.75143163	    -11.95368501	      6.08141574	     21.94564476	    -16.07467978	     28.98800283	     39.26900270	     90.00000001	      0.00000000	      0.00000000	    -16.43182427	    -13.23000870	      6.89724646	     39.74460506	     90.00000001	      0.00000000	      0.00000000
      0.54000000	      7.44022207	      6.72991056	     -4.37004901	     -1.57540841	      0.98127638	      0.33486597	    -21.39447549	     -9.88329568	    -18.64684408	     21.32559706	      1.89496461	      0.37220188	      9.18810397	      6.04238846	     -9.38765221	      7.86870681	      5.87961043	    -13.84995880	      4.28354797	     -1.22980165	      0.07476202	     -7.96378122	     10.65003592	     -9.38765221	    -17.72771993	    -12.09509727	      5.79792768	     21.26105533	    -15.99882543	     28.92540179	     39.19098713	     90.00000001	      0.00000000	      0.00000000	    -15.93945162	    -13.40354404	      6.96951699	     39.57555343	     90.00000001	      0.00000000	      0.00000000
      0.55000000	      7.30606055	      6.95700935	     -4.18217738	     -1.56654353	      0.98269645	      0.33266102	    -20.84946652	    -10.64542351	    -19.23994851	     23.16969536	      1.95565702	      0.40438747	      7.64005033	      5.78950627	     -9.33672170	      7.34802672	      6.40568150	    -13.60009080	      3.99617011	     -1.35560271	      0.06974633	     -7.87477577	     10.74703654	     -9.33672170	    -17.62298333	    -12.37385954	      5.41593464	     20.45902065	    -15.86512909	     28.65223113	     39.19457092	     90.00000001	      0.00000000	      0.00000000	    -15.40016389	    -13.69330911	      7.20585278	     39.35276534	     90.00000001	      0.00000000	      0.00000000
      0.56000000	      7.32352156	      7.01434397	     -4.03964557	     -1.55777538	      0.98442663	      0.33044182	    -20.34843340	    -11.22570623	    -19.67363900	     25.10176449	      1.88860886	      0.43810844	      5.79755539	      5.42363428	     -9.30937613	      6.64902311	      6.66131505	    -13.42704245	      3.78537391	     -1.25860802	      0.06606724	     -7.45645349	     10.86538938	     -9.30937613	    -17.71388542	    -12.44566503	      5.13549015	     19.70807499	    -15.85751482	     28.52208603	     39.08051784	     90.00000001	      0.00000000	      0.00000000	    -14.77770029	    -13.85621348	      7.32078128	     39.16683374	     90.00000001	      0.00000000	      0.00000000
      0.57000000	      7.16437546	      7.16435133	     -3.78607776	     -1.54918486	      0.98581964	      0.32796583	    -19.47599925	    -11.99613840	    -20.21974851	     27.46546536	      1.92104097	      0.47936280	      4.01092644	      4.77410516	     -9.24802102	      6.18685582	      7.10185553	    -12.97175959	      3.59350767	     -1.34286281	      0.06271854	     -7.22267496	     10.80935365	     -9.24802102	    -17.64541475	    -12.57853924	      4.75082674	     18.87426131	    -15.78139182	     28.16313906	     39.02493449	     90.00000001	      0.00000000	      0.00000000	    -14.11959016	    -14.11912375	      7.64808715	     38.95317326	     90.00000001	      0.00000000	      0.00000000
      0.58000000	      7.35418706	      7.02139245	     -3.64337517	     -1.54071291	      0.98779938	      0.32601510	    -18.92666544	    -12.40700754	    -20.44757527	     29.70675432	      1.88649540	      0.51848067	      2.20811651	      4.35618465	     -9.22714865	      5.31593342	      7.08154400	    -12.77311735	      3.46989861	     -1.17295256	      0.06056116	     -6.68010173	     10.95517898	     -9.22714865	    -17.99646684	    -12.46032913	      4.45080062	     18.18196592	    -15.73967572	     28.09516283	     38.87268034	     90.00000001	      0.00000000	      0.00000000	    -13.40284701	    -14.30558255	      7.71406465	     38.81791582	     90.00000001	      0.00000000	      0.00000000
